<svg xmlns="http://www.w3.org/2000/svg">
  <!-- Gear sprite: gear-sm (10x10), gear-md (16x16), gear-lg (20x20) -->
  <!-- Stroke-only, 1.5px stroke, no fill, 12 teeth per gear -->

  <symbol id="gear-sm" viewBox="0 0 10 10">
    <g fill="none" stroke="currentColor" stroke-width="1.5" stroke-linecap="round" stroke-linejoin="round">
      <circle cx="5" cy="5" r="1.2"/>
      <path d="M5 0.8L5.4 1.8 4.6 1.8zM5 9.2L5.4 8.2 4.6 8.2zM0.8 5L1.8 4.6 1.8 5.4zM9.2 5L8.2 4.6 8.2 5.4zM1.78 1.78L2.6 2.3 2.3 2.6zM8.22 8.22L7.4 7.7 7.7 7.4zM8.22 1.78L7.7 2.6 7.4 2.3zM1.78 8.22L2.3 7.4 2.6 7.7zM3.04 0.96L3.5 2 3 2.1zM6.96 9.04L6.5 8 7 7.9zM0.96 6.96L2 6.5 2.1 7zM9.04 3.04L8 3.5 7.9 3zM3.04 9.04L3 7.9 3.5 8zM6.96 0.96L7 2.1 6.5 2zM9.04 6.96L7.9 7 8 6.5zM0.96 3.04L2.1 3 2 3.5z"/>
      <circle cx="5" cy="5" r="3"/>
    </g>
  </symbol>

  <symbol id="gear-md" viewBox="0 0 16 16">
    <g fill="none" stroke="currentColor" stroke-width="1.5" stroke-linecap="round" stroke-linejoin="round">
      <circle cx="8" cy="8" r="2"/>
      <path d="M8 1l.7 1.8h-1.4zM8 15l.7-1.8h-1.4zM1 8l1.8-.7v1.4zM15 8l-1.8-.7v1.4zM2.64 2.64l1.5.8-.8 1.5zM13.36 13.36l-1.5-.8.8-1.5zM13.36 2.64l-.8 1.5-1.5-.8zM2.64 13.36l.8-1.5 1.5.8zM4.7 1.3l.8 1.7-.9.3zM11.3 14.7l-.8-1.7.9-.3zM1.3 11.3l1.7-.8.3.9zM14.7 4.7l-1.7.8-.3-.9zM4.7 14.7l-.3-.9.8-1.7zM11.3 1.3l.3.9-.8 1.7zM14.7 11.3l-.9-.3-1.7.8zM1.3 4.7l.9.3 1.7-.8z"/>
      <circle cx="8" cy="8" r="5"/>
    </g>
  </symbol>

  <symbol id="gear-lg" viewBox="0 0 20 20">
    <g fill="none" stroke="currentColor" stroke-width="1.5" stroke-linecap="round" stroke-linejoin="round">
      <circle cx="10" cy="10" r="2.5"/>
      <path d="M10 1.2l.9 2.3h-1.8zM10 18.8l.9-2.3h-1.8zM1.2 10l2.3-.9v1.8zM18.8 10l-2.3-.9v1.8zM3.2 3.2l1.9 1-.9 1.9zM16.8 16.8l-1.9-1 .9-1.9zM16.8 3.2l-1 1.9-1.9-1zM3.2 16.8l1-1.9 1.9 1zM5.7 1.6l1 2.2-1.1.4zM14.3 18.4l-1-2.2 1.1-.4zM1.6 14.3l2.2-1 .4 1.1zM18.4 5.7l-2.2 1-.4-1.1zM5.7 18.4l-.4-1.1 1-2.2zM14.3 1.6l.4 1.1-1 2.2zM18.4 14.3l-1.1-.4-2.2 1zM1.6 5.7l1.1.4 2.2-1z"/>
      <circle cx="10" cy="10" r="6.2"/>
    </g>
  </symbol>
</svg>
